<svg width="136" height="136" viewBox="0 0 136 136" fill="none" xmlns="http://www.w3.org/2000/svg">
<ellipse cx="68.5" cy="120.5" rx="8.5" ry="3.5" fill="white"/>
<path d="M1 48C1 42.4772 5.47715 38 11 38H125C130.523 38 135 42.4772 135 48V122H1V48Z" fill="white"/>
<path d="M17 28.3333C23.29 26.35 30.2033 25.5 36.8333 25.5C47.8833 25.5 59.7833 27.7667 68 34C76.2167 27.7667 88.1167 25.5 99.1667 25.5C110.217 25.5 122.117 27.7667 130.333 34V117.017C130.333 118.433 128.917 119.85 127.5 119.85C126.933 119.85 126.65 119.567 126.083 119.567C118.433 115.883 107.383 113.333 99.1667 113.333C88.1167 113.333 76.2167 115.6 68 121.833C60.35 117.017 46.4667 113.333 36.8333 113.333C27.4833 113.333 17.85 115.033 9.91668 119.283C9.35001 119.567 9.06668 119.567 8.50001 119.567C7.08335 119.567 5.66668 118.15 5.66668 116.733V34C9.06668 31.45 12.75 29.75 17 28.3333ZM17 104.833C23.2333 102.85 30.0333 102 36.8333 102C46.4667 102 60.35 105.683 68 110.5V45.3333C60.35 40.5167 46.4667 36.8333 36.8333 36.8333C30.0333 36.8333 23.2333 37.6833 17 39.6667V104.833Z" fill="white"/>
<path d="M36.9286 47.0241C32.0257 47.0241 27.29 47.3855 23 48.0683V41.9639C27.4014 41.3614 32.1371 41 36.9286 41C46.4 41 54.98 42.1647 62 44.3333V51C55.7043 48.4297 46.9571 47.0241 36.9286 47.0241Z" fill="white"/>
<path d="M36.9286 57.0241C32.0257 57.0241 27.29 57.3855 23 58.0683V51.9639C27.4014 51.3614 32.1371 51 36.9286 51C46.4 51 54.98 52.1647 62 54.3333V61C55.7043 58.4297 46.9571 57.0241 36.9286 57.0241Z" fill="white"/>
<path d="M36.9286 67.0241C32.0257 67.0241 27.29 67.3855 23 68.0683V61.9639C27.4014 61.3614 32.1371 61 36.9286 61C46.4 61 54.98 62.1647 62 64.3333V71C55.7043 68.4297 46.9571 67.0241 36.9286 67.0241Z" fill="white"/>
<path d="M36.9286 77.0241C32.0257 77.0241 27.29 77.3855 23 78.0683V71.9639C27.4014 71.3614 32.1371 71 36.9286 71C46.4 71 54.98 72.1647 62 74.3333V81C55.7043 78.4297 46.9571 77.0241 36.9286 77.0241Z" fill="white"/>
<path d="M36.9286 87.0241C32.0257 87.0241 27.29 87.3855 23 88.0683V81.9639C27.4014 81.3614 32.1371 81 36.9286 81C46.4 81 54.98 82.1647 62 84.3333V91C55.7043 88.4297 46.9571 87.0241 36.9286 87.0241Z" fill="white"/>
<path d="M36.9286 97.0241C32.0257 97.0241 27.29 97.3855 23 98.0683V91.9639C27.4014 91.3614 32.1371 91 36.9286 91C46.4 91 54.98 92.1647 62 94.3333V101C55.7043 98.4297 46.9571 97.0241 36.9286 97.0241Z" fill="white"/>
<path d="M11 34.4865L18 32L25 31L32 30H40.5L48 31L56 32.7432L63 35.0676L68 37V117L61.2941 113.514L54.5882 111.189L47.3235 108.865L40.0588 107.703L32.7941 107.122L25.5294 107.703L18.2647 108.865L11 110.608V34.4865Z" fill="#00DCA7"/>
<path d="M125 34.4865L118 32L111 31L104 30H95.5L88 31L80 32.7432L73 35.0676L68 37V117L74.7059 113.514L81.4118 111.189L88.6765 108.865L95.9412 107.703L103.206 107.122L110.471 107.703L117.735 108.865L125 110.608V34.4865Z" fill="#00DCA7"/>
<path d="M33.0714 39.6145C27.4143 39.6145 21.95 39.8313 17 40.241V36.5783C22.0786 36.2169 27.5429 36 33.0714 36C44 36 53.9 36.6988 62 38V42C54.7357 40.4578 44.6429 39.6145 33.0714 39.6145Z" fill="white"/>
<path d="M33.0714 48.6145C27.4143 48.6145 21.95 48.8313 17 49.241V45.5783C22.0786 45.2169 27.5429 45 33.0714 45C44 45 53.9 45.6988 62 47V51C54.7357 49.4578 44.6429 48.6145 33.0714 48.6145Z" fill="white"/>
<path d="M33.0714 57.6145C27.4143 57.6145 21.95 57.8313 17 58.241V54.5783C22.0786 54.2169 27.5429 54 33.0714 54C44 54 53.9 54.6988 62 56V60C54.7357 58.4578 44.6429 57.6145 33.0714 57.6145Z" fill="white"/>
<path d="M33.0714 66.6145C27.4143 66.6145 21.95 66.8313 17 67.241V63.5783C22.0786 63.2169 27.5429 63 33.0714 63C44 63 53.9 63.6988 62 65V69C54.7357 67.4578 44.6429 66.6145 33.0714 66.6145Z" fill="white"/>
<path d="M33.0714 75.6145C27.4143 75.6145 21.95 75.8313 17 76.241V72.5783C22.0786 72.2169 27.5429 72 33.0714 72C44 72 53.9 72.6988 62 74V78C54.7357 76.4578 44.6429 75.6145 33.0714 75.6145Z" fill="white"/>
<path d="M33.0714 84.6145C27.4143 84.6145 21.95 84.8313 17 85.241V81.5783C22.0786 81.2169 27.5429 81 33.0714 81C44 81 53.9 81.6988 62 83V87C54.7357 85.4578 44.6429 84.6145 33.0714 84.6145Z" fill="white"/>
<path d="M33.0714 93.6145C27.4143 93.6145 21.95 93.8313 17 94.241V90.5783C22.0786 90.2169 27.5429 90 33.0714 90C44 90 53.9 90.6988 62 92V96C54.7357 94.4578 44.6429 93.6145 33.0714 93.6145Z" fill="white"/>
<path d="M33.0714 102.614C27.4143 102.614 21.95 102.831 17 103.241V99.5783C22.0786 99.2169 27.5429 99 33.0714 99C44 99 53.9 99.6988 62 101V105C54.7357 103.458 44.6429 102.614 33.0714 102.614Z" fill="white"/>
<path d="M102.929 39.6145C108.586 39.6145 114.05 39.8313 119 40.241V36.5783C113.921 36.2169 108.457 36 102.929 36C92 36 82.1 36.6988 74 38V42C81.2643 40.4578 91.3571 39.6145 102.929 39.6145Z" fill="white"/>
<path d="M102.929 48.6145C108.586 48.6145 114.05 48.8313 119 49.241V45.5783C113.921 45.2169 108.457 45 102.929 45C92 45 82.1 45.6988 74 47V51C81.2643 49.4578 91.3571 48.6145 102.929 48.6145Z" fill="white"/>
<path d="M102.929 57.6145C108.586 57.6145 114.05 57.8313 119 58.241V54.5783C113.921 54.2169 108.457 54 102.929 54C92 54 82.1 54.6988 74 56V60C81.2643 58.4578 91.3571 57.6145 102.929 57.6145Z" fill="white"/>
<path d="M102.929 66.6145C108.586 66.6145 114.05 66.8313 119 67.241V63.5783C113.921 63.2169 108.457 63 102.929 63C92 63 82.1 63.6988 74 65V69C81.2643 67.4578 91.3571 66.6145 102.929 66.6145Z" fill="white"/>
<path d="M102.929 75.6145C108.586 75.6145 114.05 75.8313 119 76.241V72.5783C113.921 72.2169 108.457 72 102.929 72C92 72 82.1 72.6988 74 74V78C81.2643 76.4578 91.3571 75.6145 102.929 75.6145Z" fill="white"/>
<path d="M102.929 84.6145C108.586 84.6145 114.05 84.8313 119 85.241V81.5783C113.921 81.2169 108.457 81 102.929 81C92 81 82.1 81.6988 74 83V87C81.2643 85.4578 91.3571 84.6145 102.929 84.6145Z" fill="white"/>
<path d="M102.929 93.6145C108.586 93.6145 114.05 93.8313 119 94.241V90.5783C113.921 90.2169 108.457 90 102.929 90C92 90 82.1 90.6988 74 92V96C81.2643 94.4578 91.3571 93.6145 102.929 93.6145Z" fill="white"/>
<path d="M102.929 102.614C108.586 102.614 114.05 102.831 119 103.241V99.5783C113.921 99.2169 108.457 99 102.929 99C92 99 82.1 99.6988 74 101V105C81.2643 103.458 91.3571 102.614 102.929 102.614Z" fill="white"/>
<rect x="67" y="36" width="2" height="81" fill="white"/>
<path d="M65 35H71V75L68 71L65 75V35Z" fill="white"/>
</svg>
