<svg width="35" height="35" viewBox="0 0 35 35" fill="none" xmlns="http://www.w3.org/2000/svg">
<path d="M17.5 21.875C20.5203 21.875 22.9688 19.4266 22.9688 16.4062C22.9688 13.3859 20.5203 10.9375 17.5 10.9375C14.4797 10.9375 12.0312 13.3859 12.0312 16.4062C12.0312 19.4266 14.4797 21.875 17.5 21.875Z" stroke="#939393" stroke-width="2" stroke-linecap="round" stroke-linejoin="round"/>
<path d="M29.5312 6.5625H5.46875C4.86469 6.5625 4.375 7.05219 4.375 7.65625V27.3438C4.375 27.9478 4.86469 28.4375 5.46875 28.4375H29.5312C30.1353 28.4375 30.625 27.9478 30.625 27.3438V7.65625C30.625 7.05219 30.1353 6.5625 29.5312 6.5625Z" stroke="#939393" stroke-width="2" stroke-linecap="round" stroke-linejoin="round"/>
<path d="M8.2166 28.4369C8.8959 26.5177 10.1533 24.8562 11.8158 23.6811C13.4783 22.506 15.4641 21.875 17.5 21.875C19.5359 21.875 21.5217 22.506 23.1842 23.6811C24.8467 24.8562 26.1041 26.5177 26.7834 28.4369" stroke="#939393" stroke-width="2" stroke-linecap="round" stroke-linejoin="round"/>
</svg>
