<svg width="352" height="348" viewBox="0 0 352 348" fill="none" xmlns="http://www.w3.org/2000/svg">
<rect width="352" height="348" rx="10" fill="white"/>
<path d="M175.501 214.567C194.867 214.567 210.567 198.867 210.567 179.5C210.567 160.133 194.867 144.433 175.501 144.433C156.134 144.433 140.434 160.133 140.434 179.5C140.434 198.867 156.134 214.567 175.501 214.567Z" fill="#00DCA7"/>
<path d="M142.625 69.9167L122.571 91.8334H87.8334C75.7792 91.8334 65.9167 101.696 65.9167 113.75V245.25C65.9167 257.304 75.7792 267.167 87.8334 267.167H263.167C275.221 267.167 285.083 257.304 285.083 245.25V113.75C285.083 101.696 275.221 91.8334 263.167 91.8334H228.429L208.375 69.9167H142.625ZM175.5 234.292C145.255 234.292 120.708 209.745 120.708 179.5C120.708 149.255 145.255 124.708 175.5 124.708C205.745 124.708 230.292 149.255 230.292 179.5C230.292 209.745 205.745 234.292 175.5 234.292Z" fill="#00DCA7"/>
<rect x="259" y="38" width="10" height="42" fill="#00DCA7"/>
<rect x="243" y="54" width="42" height="10" fill="#00DCA7"/>
</svg>
